# Blender 4.2.1 LTS
# www.blender.org
mtllib house.mtl
o House
v -1.325258 0.000000 1.000000
v -1.500000 1.500000 1.000000
v -1.325258 0.000000 -1.000000
v -1.500000 1.500000 -1.000000
v 1.325258 0.000000 1.000000
v -1.765164 1.525046 -1.082316
v 1.325258 0.000000 -1.000000
v -1.765164 1.525046 1.082316
v 1.607536 1.446232 1.082316
v 0.000000 2.250000 -1.000000
v 1.500000 1.500000 -1.000000
v 1.500000 1.500000 1.000000
v 0.000000 2.250000 1.000000
v 1.607536 1.446232 -1.082316
v -1.607536 1.446232 -1.082316
v 0.000000 2.250000 -1.082316
v 0.000000 2.250000 1.082316
v -1.607536 1.446232 1.082316
v -0.842909 2.406217 -0.185847
v -0.842909 1.462668 -0.185847
v 0.000000 2.429697 1.082316
v 0.000000 2.429697 -1.082316
v 1.765164 1.525046 -1.082316
v 1.765164 1.525046 1.082316
v -0.842909 2.406217 -0.595772
v -0.842909 1.462668 -0.595772
v -1.252833 2.406217 -0.595772
v -1.252833 1.462668 -0.595772
v -1.252833 2.406217 -0.185847
v -1.252833 1.462668 -0.185847
v -0.753862 2.406217 -0.096801
v -1.341880 2.406217 -0.096801
v -0.753862 2.406217 -0.684819
v -1.341880 2.406217 -0.684819
v -0.861246 2.623154 -0.168390
v -1.234496 2.623154 -0.168390
v -0.861246 2.623154 -0.613230
v -1.234496 2.623154 -0.613230
v -0.753862 2.623154 -0.096801
v -1.341880 2.623154 -0.096801
v -0.753862 2.623154 -0.684819
v -1.341880 2.623154 -0.684819
v -0.861246 2.533318 -0.168390
v -1.234496 2.533318 -0.168390
v -0.861246 2.533318 -0.613230
v -1.234496 2.533318 -0.613230
v -0.353675 1.257871 1.000000
v 0.353675 1.257871 1.000000
v -0.353675 0.038691 1.000000
v 0.353675 0.038691 1.000000
v -0.353675 1.257871 1.032115
v 0.353675 1.257871 1.032115
v -0.353675 0.038691 1.032115
v 0.353675 0.038691 1.032115
v -0.383506 1.309286 1.032115
v 0.383506 1.309286 1.032115
v -0.383506 -0.012724 1.032115
v 0.383506 -0.012724 1.032115
v -0.383506 1.309286 0.890497
v 0.383506 1.309286 0.890497
v -0.383506 -0.012724 0.890497
v 0.383506 -0.012724 0.890497
v -0.232352 0.669981 1.057969
v -0.196485 0.649273 1.057969
v -0.232352 0.653740 0.987665
v -0.232352 0.658495 1.047526
v -0.210550 0.641152 0.987665
v -0.206432 0.643530 1.047526
v -0.210550 0.615977 0.987665
v -0.206432 0.613600 1.047526
v -0.232352 0.603390 0.987665
v -0.232352 0.598635 1.047526
v -0.254154 0.615977 0.987665
v -0.258272 0.613600 1.047526
v -0.254154 0.641152 0.987665
v -0.258272 0.643530 1.047526
v -0.196485 0.607857 1.057969
v -0.232352 0.587149 1.057969
v -0.268219 0.607857 1.057969
v -0.268219 0.649273 1.057969
v -0.232352 0.669981 1.092726
v -0.268219 0.649273 1.092726
v -0.268219 0.607857 1.092726
v -0.232352 0.587149 1.092726
v -0.196485 0.607857 1.092726
v -0.196485 0.649273 1.092726
v -0.232352 0.648506 1.112729
v -0.249622 0.638535 1.112729
v -0.249622 0.618594 1.112729
v -0.232352 0.608623 1.112729
v -0.215082 0.618594 1.112729
v -0.215082 0.638535 1.112729
vn -0.9933 -0.1157 -0.0000
vn -0.0000 -0.0000 -1.0000
vn 0.9933 -0.1157 -0.0000
vn -0.0000 -0.0000 1.0000
vn -0.0000 -1.0000 -0.0000
vn -0.4472 -0.8944 -0.0000
vn 0.4472 -0.8944 -0.0000
vn -0.4561 0.8899 -0.0000
vn 0.4561 0.8899 -0.0000
vn 1.0000 -0.0000 -0.0000
vn -1.0000 -0.0000 -0.0000
vn -0.0000 1.0000 -0.0000
vn -0.5000 0.8660 -0.0000
vn -0.3620 -0.6271 -0.6897
vn 0.4988 0.8640 -0.0686
vn -0.5000 -0.8660 -0.0000
vn 0.3621 -0.6271 -0.6897
vn 0.9976 -0.0000 -0.0686
vn 0.3621 0.6271 -0.6897
vn 0.4988 -0.8640 -0.0686
vn 0.5000 -0.8660 -0.0000
vn -0.3621 0.6271 -0.6897
vn -0.4988 -0.8640 -0.0686
vn -0.7241 -0.0000 -0.6897
vn 0.7241 -0.0000 -0.6897
vn -0.9976 -0.0000 -0.0686
vn 0.5000 0.8660 -0.0000
vn 0.3662 0.6343 0.6809
vn -0.4988 0.8640 -0.0686
vn 0.3662 -0.6343 0.6809
vn -0.7324 -0.0000 0.6809
vn 0.7324 -0.0000 0.6809
vn -0.3662 -0.6343 0.6809
vn -0.3662 0.6343 0.6809
vt 0.010692 0.626489
vt 0.010692 0.388482
vt 0.248296 0.388482
vt 0.248296 0.626489
vt 0.024532 0.367098
vt 0.010692 0.129494
vt 0.248296 0.129494
vt 0.234456 0.367098
vt 0.269680 0.626489
vt 0.269680 0.388482
vt 0.507284 0.388482
vt 0.507284 0.626489
vt 0.416494 0.360969
vt 0.493444 0.367098
vt 0.283520 0.367098
vt 0.360471 0.360969
vt 0.360471 0.167848
vt 0.269680 0.129494
vt 0.507284 0.129494
vt 0.416494 0.167848
vt 0.738592 0.805389
vt 0.528668 0.805389
vt 0.528668 0.567785
vt 0.738592 0.567785
vt 0.388482 0.010692
vt 0.129494 0.010692
vt 0.778716 0.150495
vt 0.906035 0.277814
vt 0.893550 0.290299
vt 0.750251 0.150495
vt 0.945075 0.010692
vt 0.945074 0.267854
vt 0.927419 0.267854
vt 0.927419 0.010692
vt 0.954800 0.567785
vt 0.954800 0.824948
vt 0.937144 0.824948
vt 0.937144 0.567785
vt 0.915760 0.834907
vt 0.903276 0.847392
vt 0.759977 0.707589
vt 0.788441 0.707589
vt 0.190748 0.905035
vt 0.010692 0.905035
vt 0.010692 0.895256
vt 0.178703 0.895256
vt 0.178703 0.657652
vt 0.010692 0.657652
vt 0.010692 0.647873
vt 0.190748 0.647873
vt 0.528668 0.976234
vt 0.528668 0.826773
vt 0.561135 0.826773
vt 0.561135 0.976234
vt 0.380144 0.657652
vt 0.212133 0.657652
vt 0.212133 0.647873
vt 0.392189 0.647873
vt 0.392189 0.905035
vt 0.212133 0.905035
vt 0.212133 0.895256
vt 0.380144 0.895256
vt 0.893550 0.010692
vt 0.906035 0.023177
vt 0.728867 0.010692
vt 0.728867 0.267854
vt 0.528668 0.267854
vt 0.528668 0.010692
vt 0.903276 0.567785
vt 0.915760 0.580270
vt 0.728867 0.546401
vt 0.528668 0.546401
vt 0.528668 0.289239
vt 0.728867 0.289239
vt 0.643423 0.837352
vt 0.643423 0.886052
vt 0.636370 0.896631
vt 0.636370 0.826773
vt 0.902468 0.461143
vt 0.902468 0.311683
vt 0.951117 0.311683
vt 0.951117 0.461143
vt 0.832384 0.461143
vt 0.832384 0.311683
vt 0.881084 0.311683
vt 0.881084 0.461143
vt 0.582519 0.976234
vt 0.582519 0.826773
vt 0.614986 0.826773
vt 0.614986 0.976234
vt 0.866747 0.482528
vt 0.866747 0.529099
vt 0.832384 0.529099
vt 0.832384 0.482528
vt 0.675889 0.886052
vt 0.675889 0.837352
vt 0.682942 0.826773
vt 0.682942 0.896631
vt 0.636370 0.947577
vt 0.636370 0.918015
vt 0.650600 0.918015
vt 0.650600 0.947577
vt 0.905836 0.868776
vt 0.905836 0.915348
vt 0.871472 0.915348
vt 0.871472 0.868776
vt 0.794340 0.868776
vt 0.794340 0.938634
vt 0.759977 0.938634
vt 0.759977 0.868776
vt 0.850088 0.868776
vt 0.850088 0.938560
vt 0.815724 0.938560
vt 0.815724 0.868776
vt 0.451640 0.870883
vt 0.422078 0.870883
vt 0.413573 0.862378
vt 0.460145 0.862378
vt 0.451640 0.923731
vt 0.460145 0.932236
vt 0.422078 0.923731
vt 0.413573 0.932236
vt 0.733888 0.879621
vt 0.704326 0.879621
vt 0.704326 0.826773
vt 0.733888 0.826773
vt 0.010692 0.955981
vt 0.010692 0.926419
vt 0.024922 0.926419
vt 0.024922 0.955981
vt 0.927220 0.921568
vt 0.927220 0.868776
vt 0.941450 0.868776
vt 0.941450 0.921568
vt 0.926340 0.535376
vt 0.926340 0.482528
vt 0.940571 0.482528
vt 0.940571 0.535376
vt 0.708142 0.901006
vt 0.708142 0.957029
vt 0.704326 0.957029
vt 0.704326 0.901006
vt 0.733341 0.901006
vt 0.733341 0.957029
vt 0.729526 0.957029
vt 0.729526 0.901006
vt 0.494796 0.647873
vt 0.494796 0.840994
vt 0.490980 0.840994
vt 0.490980 0.647873
vt 0.976184 0.760906
vt 0.976184 0.567785
vt 0.979996 0.567785
vt 0.979996 0.760906
vt 0.752614 0.319827
vt 0.752614 0.512948
vt 0.750251 0.521092
vt 0.750251 0.311683
vt 0.808637 0.512948
vt 0.811000 0.521092
vt 0.808637 0.319827
vt 0.811000 0.311683
vt 0.888132 0.543276
vt 0.888132 0.482528
vt 0.904956 0.482528
vt 0.904956 0.543276
vt 0.966459 0.220102
vt 0.966459 0.010692
vt 0.983283 0.010692
vt 0.983283 0.220102
vt 0.989308 0.311683
vt 0.989308 0.521092
vt 0.972501 0.521092
vt 0.972501 0.311683
vt 0.481529 0.923126
vt 0.481529 0.862378
vt 0.498353 0.862378
vt 0.498353 0.923126
vt 0.413573 0.840994
vt 0.413573 0.647873
vt 0.469596 0.647873
vt 0.469596 0.840994
vt 0.298145 0.926419
vt 0.298145 0.930759
vt 0.294015 0.930759
vt 0.294015 0.926419
vt 0.295735 0.952143
vt 0.295735 0.955279
vt 0.294015 0.956654
vt 0.294015 0.952315
vt 0.123953 0.933553
vt 0.123455 0.926419
vt 0.126591 0.926451
vt 0.126591 0.933580
vt 0.349172 0.926419
vt 0.349172 0.930759
vt 0.345043 0.930759
vt 0.345043 0.926419
vt 0.370556 0.955279
vt 0.370556 0.952143
vt 0.372276 0.952315
vt 0.372276 0.956654
vt 0.676349 0.918015
vt 0.676726 0.925134
vt 0.671985 0.925134
vt 0.672361 0.918015
vt 0.097946 0.932980
vt 0.097946 0.926419
vt 0.102071 0.926419
vt 0.102071 0.932980
vt 0.345043 0.956654
vt 0.345043 0.953518
vt 0.346762 0.952143
vt 0.346762 0.956482
vt 0.200151 0.926419
vt 0.200151 0.933548
vt 0.197015 0.933580
vt 0.197513 0.926446
vt 0.370556 0.930759
vt 0.370556 0.926419
vt 0.374685 0.926419
vt 0.374685 0.930759
vt 0.318839 0.953518
vt 0.318839 0.956654
vt 0.317120 0.956482
vt 0.317120 0.952143
vt 0.175133 0.926446
vt 0.175631 0.933580
vt 0.172495 0.933548
vt 0.172495 0.926419
vt 0.953331 0.943862
vt 0.953331 0.948603
vt 0.951861 0.949513
vt 0.951861 0.942953
vt 0.671985 0.952169
vt 0.671985 0.947428
vt 0.673454 0.946519
vt 0.673454 0.953079
vt 0.046683 0.933531
vt 0.046307 0.926419
vt 0.051048 0.926419
vt 0.050671 0.933531
vt 0.319529 0.930759
vt 0.319529 0.926419
vt 0.323658 0.926419
vt 0.323658 0.930759
vt 0.896113 0.941071
vt 0.896113 0.936732
vt 0.899370 0.939304
vt 0.899370 0.941393
vt 0.147975 0.933580
vt 0.147975 0.926451
vt 0.151111 0.926419
vt 0.150613 0.933553
vt 0.076561 0.926419
vt 0.076561 0.932980
vt 0.072432 0.932980
vt 0.072432 0.926419
vt 0.269896 0.927999
vt 0.271263 0.926419
vt 0.272631 0.927999
vt 0.272631 0.931158
vt 0.271263 0.932737
vt 0.269896 0.931158
vt 0.927220 0.947613
vt 0.927220 0.943274
vt 0.930477 0.942953
vt 0.930477 0.945042
vt 0.248511 0.926419
vt 0.248511 0.932980
vt 0.245715 0.931279
vt 0.245715 0.928120
vt 0.221535 0.932980
vt 0.221535 0.926419
vt 0.224331 0.928120
vt 0.224331 0.931279
vt 0.484786 0.944832
vt 0.484786 0.949171
vt 0.481529 0.946600
vt 0.481529 0.944511
vt 0.874729 0.936732
vt 0.874729 0.941071
vt 0.871472 0.941393
vt 0.871472 0.939304
s 0
usemtl Material
f 1/1/1 2/2/1 4/3/1 3/4/1
f 3/5/2 4/6/2 11/7/2 7/8/2
f 7/9/3 11/10/3 12/11/3 5/12/3
f 49/13/4 1/14/4 5/15/4 50/16/4
f 48/17/4 50/16/4 5/15/4 12/18/4 2/19/4 1/14/4 49/13/4 47/20/4
f 3/21/5 7/22/5 5/23/5 1/24/5
f 2/19/4 12/18/4 13/25/4
f 11/7/2 4/6/2 10/26/2
f 17/27/4 9/28/4 24/29/4 21/30/4
f 15/31/6 18/32/6 8/33/6 6/34/6
f 9/35/7 14/36/7 23/37/7 24/38/7
f 15/39/2 6/40/2 22/41/2 16/42/2
f 15/43/7 16/44/7 10/45/7 4/46/7 2/47/7 13/48/7 17/49/7 18/50/7
f 20/51/4 19/52/4 29/53/4 30/54/4
f 11/55/6 10/56/6 16/57/6 14/58/6 9/59/6 17/60/6 13/61/6 12/62/6
f 8/63/4 18/64/4 17/27/4 21/30/4
f 6/65/8 8/66/8 21/67/8 22/68/8
f 23/69/2 14/70/2 16/42/2 22/41/2
f 23/71/9 22/72/9 21/73/9 24/74/9
f 19/75/5 25/76/5 33/77/5 31/78/5
f 26/79/10 25/80/10 19/81/10 20/82/10
f 30/83/11 29/84/11 27/85/11 28/86/11
f 28/87/2 27/88/2 25/89/2 26/90/2
f 33/91/2 34/92/2 42/93/2 41/94/2
f 27/95/5 29/96/5 32/97/5 34/98/5
f 29/96/5 19/75/5 31/78/5 32/97/5
f 25/76/5 27/95/5 34/98/5 33/77/5
f 37/99/4 38/100/4 46/101/4 45/102/4
f 32/103/4 31/104/4 39/105/4 40/106/4
f 34/107/11 32/108/11 40/109/11 42/110/11
f 31/111/10 33/112/10 41/113/10 39/114/10
f 35/115/12 36/116/12 40/117/12 39/118/12
f 37/119/12 35/115/12 39/118/12 41/120/12
f 38/121/12 37/119/12 41/120/12 42/122/12
f 36/116/12 38/121/12 42/122/12 40/117/12
f 45/123/12 46/124/12 44/125/12 43/126/12
f 36/127/2 35/128/2 43/129/2 44/130/2
f 38/131/10 36/132/10 44/133/10 46/134/10
f 35/135/11 37/136/11 45/137/11 43/138/11
f 49/139/5 50/140/5 54/141/5 53/142/5
f 48/143/12 47/144/12 51/145/12 52/146/12
f 47/147/11 49/148/11 53/149/11 51/150/11
f 50/151/10 48/152/10 52/153/10 54/154/10
f 51/155/2 53/156/2 57/157/2 55/158/2
f 53/156/2 54/159/2 58/160/2 57/157/2
f 52/161/2 51/155/2 55/158/2 56/162/2
f 54/159/2 52/161/2 56/162/2 58/160/2
f 56/163/5 55/164/5 59/165/5 60/166/5
f 58/167/11 56/168/11 60/169/11 62/170/11
f 55/171/10 57/172/10 61/173/10 59/174/10
f 57/175/12 58/176/12 62/177/12 61/178/12
f 49/179/2 47/180/2 48/181/2 50/182/2
f 63/183/13 80/184/13 82/185/13 81/186/13
f 74/187/14 72/188/14 78/189/14 79/190/14
f 65/191/15 66/192/15 68/193/15 67/194/15
f 79/195/16 78/196/16 84/197/16 83/198/16
f 72/199/17 70/200/17 77/201/17 78/202/17
f 67/203/18 68/204/18 70/205/18 69/206/18
f 77/207/10 64/208/10 86/209/10 85/210/10
f 68/211/19 66/212/19 63/213/19 64/214/19
f 69/215/20 70/216/20 72/217/20 71/218/20
f 78/219/21 77/220/21 85/221/21 84/222/21
f 66/223/22 76/224/22 80/225/22 63/226/22
f 71/227/23 72/228/23 74/229/23 73/230/23
f 76/231/24 74/232/24 79/233/24 80/234/24
f 70/235/25 68/236/25 64/237/25 77/238/25
f 73/239/26 74/240/26 76/241/26 75/242/26
f 64/243/27 63/244/27 81/245/27 86/246/27
f 86/247/28 81/248/28 87/249/28 92/250/28
f 75/251/29 76/252/29 66/253/29 65/254/29
f 80/255/11 79/256/11 83/257/11 82/258/11
f 92/259/4 87/260/4 88/261/4 89/262/4 90/263/4 91/264/4
f 84/265/30 85/266/30 91/267/30 90/268/30
f 82/269/31 83/270/31 89/271/31 88/272/31
f 85/273/32 86/274/32 92/275/32 91/276/32
f 83/277/33 84/278/33 90/279/33 89/280/33
f 81/281/34 82/282/34 88/283/34 87/284/34
